<svg width="174" height="50" viewBox="0 0 174 50" fill="none" xmlns="http://www.w3.org/2000/svg">
<g clip-path="url(#clip0_167_745)">
<path d="M17.3116 7.64149C17.4096 7.77608 17.4535 7.94361 17.4343 8.10998C17.4151 8.27635 17.3344 8.42903 17.2083 8.5369C14.9463 10.4734 12.8674 12.6211 10.9991 14.9518C9.03502 17.3952 7.39352 20.0893 6.11637 22.9654C5.50601 24.3687 5.01997 25.8246 4.66405 27.3157C4.62279 27.4998 4.57321 27.6824 4.53846 27.8669L4.43405 28.4199L4.38146 28.6956L4.34244 28.9724L4.26355 29.5245C4.23902 29.7083 4.22749 29.8925 4.20843 30.0759C4.194 30.2595 4.16657 30.4425 4.16369 30.6254C4.14954 30.9909 4.12314 31.3557 4.13498 31.7169C4.1357 32.43 4.18868 33.1421 4.29352 33.8472C4.3582 34.191 4.40602 34.5376 4.49729 34.8698L4.55738 35.121C4.57506 35.2049 4.5975 35.2876 4.62456 35.369L4.77498 35.857C4.79849 35.9384 4.82654 36.0182 4.85898 36.0962L4.94923 36.3321C5.00454 36.4904 5.06789 36.6455 5.13906 36.7971L5.34638 37.2507C5.42352 37.3976 5.50693 37.541 5.58528 37.6865C5.74412 37.9763 5.9172 38.2579 6.10385 38.5299C6.14743 38.6004 6.19532 38.6679 6.24729 38.7321L6.3974 38.9301C6.49981 39.0605 6.58845 39.1986 6.70312 39.321L7.02803 39.698C7.13555 39.8237 7.2598 39.9378 7.37354 40.0587L7.54695 40.2378C7.60595 40.2965 7.67029 40.3512 7.73137 40.4082C7.85612 40.5201 7.97516 40.6362 8.10241 40.7451C8.61388 41.1821 9.15653 41.58 9.72588 41.9352L9.93881 42.0685L10.1562 42.1925C10.3 42.278 10.446 42.3554 10.5921 42.4312C10.869 42.578 11.1532 42.71 11.4437 42.8266L11.5367 42.8611L11.6498 42.8995L11.8752 42.9772L12.0995 43.0558C12.1749 43.0802 12.2529 43.0989 12.3292 43.1209C12.4833 43.1619 12.6337 43.2106 12.7887 43.2475L13.256 43.3494C15.7636 43.8521 18.4765 43.4855 21.0426 42.5541C22.3405 42.0678 23.5926 41.4632 24.7838 40.7477C25.9921 40.0122 27.1428 39.1827 28.2255 38.2668C29.417 37.2593 30.533 36.163 31.5643 34.9868C32.2738 34.1831 33.2584 33.6857 34.3168 33.5958C35.3751 33.506 36.4271 33.8307 37.2579 34.5037C37.7303 34.8866 38.1155 35.3693 38.3869 35.9184C38.6582 36.4674 38.8092 37.0698 38.8294 37.6839C38.8495 38.2982 38.7384 38.9094 38.5037 39.4757C38.2692 40.042 37.9165 40.5497 37.4701 40.964C36.031 42.3105 34.4953 43.546 32.8754 44.6598C31.377 45.6906 29.8022 46.6012 28.165 47.3833C26.5011 48.1689 24.7698 48.7978 22.9931 49.2619L22.3151 49.4202L21.9765 49.4981C21.8629 49.5224 21.7476 49.5424 21.6333 49.5646L20.947 49.6927C20.7163 49.7295 20.4839 49.7607 20.2527 49.7941L19.9057 49.8429C19.7894 49.857 19.6718 49.8668 19.5552 49.8789L18.854 49.9458L18.1469 49.9821C18.0289 49.9872 17.9116 49.9947 17.7935 49.9974L17.4375 49.9987C15.5151 50.0233 13.6001 49.7512 11.7579 49.1919L11.0655 48.9629C10.8362 48.8819 10.6103 48.7869 10.3837 48.6985C10.2708 48.6527 10.157 48.61 10.0453 48.561L9.71251 48.4069L9.38086 48.2516L9.21547 48.1737L9.03425 48.082C8.59762 47.8516 8.17261 47.5994 7.76081 47.3258C7.56077 47.1946 7.363 47.0614 7.17178 46.9214L6.88295 46.7137L6.6018 46.4969C5.85332 45.9177 5.14857 45.2823 4.49342 44.5959C4.32952 44.4239 4.17346 44.2424 4.01433 44.0656C3.93577 43.9759 3.85499 43.8891 3.77887 43.7969L3.55444 43.5164C3.40712 43.3272 3.25263 43.1462 3.11358 42.9497L2.69947 42.3593C2.55762 42.1668 2.43999 41.9529 2.31219 41.749L2.12488 41.4396C2.06183 41.3372 2.00028 41.2337 1.94641 41.1247C1.72539 40.6929 1.4906 40.2717 1.31188 39.819C1.21771 39.5957 1.12051 39.3742 1.03172 39.1496L0.795568 38.4641C0.712381 38.2373 0.653168 38.0043 0.589928 37.7727L0.496271 37.4254C0.464525 37.31 0.433668 37.1942 0.412061 37.0769L0.269857 36.3767C0.244286 36.2604 0.226163 36.1435 0.210967 36.0262L0.161806 35.6749C0.0861777 35.2075 0.0616919 34.7396 0.024495 34.2735C-0.0224238 33.3521 -0.00191796 32.4284 0.0858238 31.5101C0.117979 31.0541 0.190744 30.6078 0.253701 30.1605C0.28116 29.9359 0.332987 29.7177 0.37267 29.4969C0.416843 29.277 0.454323 29.0555 0.504672 28.8384L0.662048 28.1892L0.741169 27.8654L0.833701 27.5467L1.0194 26.9108C1.08156 26.6992 1.15793 26.4934 1.22668 26.285C1.78933 24.6438 2.49485 23.0571 3.33481 21.5436C4.99484 18.5991 7.02684 15.8884 9.37899 13.4806C11.5394 11.2645 13.8993 9.25932 16.4277 7.49133C16.5655 7.39508 16.7345 7.35694 16.8995 7.38495C17.0643 7.41295 17.212 7.50494 17.3116 7.64149Z" fill="white"/>
<path d="M10.305 38.4619C10.1682 38.3515 10.0783 38.1922 10.0538 38.0164C10.0292 37.8406 10.072 37.662 10.1731 37.5174C10.2112 37.4626 10.2497 37.4077 10.2886 37.353C10.4506 37.123 10.6153 36.8955 10.7826 36.6709C11.1178 36.2215 11.4596 35.7766 11.8132 35.342C12.5172 34.469 13.2539 33.6214 14.0234 32.7991C15.5737 31.1403 17.24 29.5978 19.0093 28.1838C19.9058 27.4765 20.8279 26.7912 21.7866 26.1491C22.0238 25.9845 22.2701 25.8338 22.5123 25.6755C22.7552 25.5184 22.9986 25.3607 23.2487 25.2141L23.9959 24.7651L24.7587 24.3385L25.1421 24.1261L25.532 23.925C25.7926 23.7918 26.0523 23.6552 26.3155 23.5248C26.8479 23.278 27.3754 23.0124 27.9226 22.789C27.9451 22.779 27.9676 22.7692 27.9901 22.7592C28.3837 22.5882 28.8096 22.508 29.2373 22.5246C29.6649 22.5412 30.0836 22.6541 30.4633 22.8551C30.8428 23.0562 31.1738 23.3404 31.4324 23.6872C31.6909 24.034 31.8708 24.4349 31.9585 24.861L31.9649 24.8914C32.0429 25.2716 32.0464 25.6636 31.9754 26.0452C31.9043 26.4267 31.76 26.7903 31.5508 27.1153C31.3415 27.44 31.0712 27.7197 30.7556 27.9382C30.4399 28.1569 30.0851 28.3099 29.7112 28.3889L29.682 28.3954C29.1926 28.4844 28.7115 28.6167 28.2225 28.7293C27.9801 28.7928 27.739 28.8632 27.4963 28.9296L27.132 29.031L26.7705 29.1442L26.0458 29.3732L25.3263 29.6266C25.0846 29.708 24.847 29.8012 24.6086 29.8943C24.371 29.9885 24.1292 30.0748 23.8933 30.1762C22.942 30.5642 22.0043 31.0023 21.0741 31.47C19.2012 32.4285 17.3988 33.5237 15.6815 34.747C14.8156 35.3632 13.9699 36.0127 13.1447 36.6956C12.7311 37.0353 12.3273 37.3867 11.9281 37.7438C11.7289 37.9227 11.5321 38.1039 11.3378 38.2875C11.2895 38.3327 11.2412 38.3786 11.1928 38.4251C11.0751 38.5385 10.9211 38.6053 10.7591 38.6127C10.5971 38.6203 10.4378 38.5683 10.3104 38.4663L10.305 38.4619Z" fill="white"/>
<path d="M14.7998 27.0517C14.6631 26.9414 14.5732 26.7819 14.5486 26.6063C14.5241 26.4305 14.5668 26.2518 14.668 26.1073C14.7061 26.0523 14.7446 25.9976 14.7835 25.9428C14.9455 25.7128 15.1101 25.4853 15.2775 25.2606C15.6127 24.8112 15.9545 24.3664 16.3081 23.9317C17.0121 23.0587 17.7488 22.2112 18.5183 21.3888C20.0686 19.73 21.7349 18.1877 23.5042 16.7736C24.4007 16.0662 25.3228 15.381 26.2815 14.7388C26.5187 14.5742 26.765 14.4237 27.0072 14.2653C27.2501 14.1081 27.4935 13.9505 27.7436 13.8038L28.4908 13.3549L29.2536 12.9282L29.637 12.7159L30.0269 12.5149C30.2875 12.3817 30.547 12.2449 30.8103 12.1146C31.3428 11.8679 31.8703 11.6023 32.4175 11.3789C32.44 11.3689 32.4625 11.3589 32.485 11.349C32.8786 11.178 33.3045 11.0978 33.7322 11.1144C34.1598 11.131 34.5785 11.2439 34.9582 11.4449C35.3377 11.646 35.6687 11.9302 35.9273 12.277C36.1859 12.6239 36.3655 13.0247 36.4534 13.4507L36.4598 13.4812C36.5378 13.8614 36.5413 14.2534 36.4703 14.635C36.3992 15.0166 36.2549 15.3801 36.0455 15.705C35.8364 16.0298 35.5661 16.3095 35.2505 16.528C34.9348 16.7466 34.58 16.8998 34.2061 16.9788L34.1769 16.985C33.6873 17.074 33.2064 17.2064 32.7174 17.319C32.475 17.3825 32.2339 17.4529 31.9912 17.5195L31.6267 17.6207L31.2654 17.7339L30.5407 17.9631L29.8212 18.2163C29.5794 18.2979 29.3419 18.3911 29.1035 18.484C28.8658 18.5784 28.6239 18.6645 28.3882 18.7659C27.4369 19.154 26.4992 19.5922 25.569 20.0598C23.6959 21.0182 21.8937 22.1134 20.1762 23.3367C19.3104 23.953 18.4648 24.6025 17.6395 25.2855C17.226 25.6252 16.8221 25.9765 16.423 26.3337C16.2237 26.5125 16.0269 26.6937 15.8327 26.8773C15.7844 26.9226 15.736 26.9683 15.6876 27.0148C15.5699 27.1283 15.416 27.1949 15.254 27.2026C15.0919 27.21 14.9326 27.158 14.8052 27.056L14.7998 27.0517Z" fill="white"/>
<path d="M17.9809 15.9394C17.8441 15.8291 17.7542 15.6696 17.7297 15.4939C17.7051 15.3181 17.7478 15.1395 17.8491 14.9949C17.8872 14.9401 17.9257 14.8853 17.9646 14.8304C18.1265 14.6004 18.2912 14.373 18.4585 14.1483C18.7937 13.699 19.1355 13.2541 19.4892 12.8194C20.1932 11.9465 20.9299 11.0988 21.6994 10.2765C23.2495 8.61777 24.9159 7.07533 26.6853 5.66129C27.5818 4.95389 28.5038 4.26863 29.4626 3.62651C29.6998 3.46193 29.946 3.31136 30.1881 3.15293C30.4312 2.99581 30.6745 2.83823 30.9244 2.69156L31.6718 2.24263L32.4345 1.81592L32.8181 1.60359L33.2078 1.40256C33.4685 1.26936 33.7281 1.13262 33.9913 1.00232C34.5238 0.755612 35.0513 0.489989 35.5985 0.266547C35.621 0.256565 35.6436 0.246623 35.6661 0.236713C36.0596 0.0656672 36.4855 -0.014453 36.9131 0.00213844C37.3408 0.0187299 37.7596 0.131609 38.1391 0.332641C38.5188 0.533673 38.8498 0.817854 39.1083 1.1647C39.3669 1.51155 39.5466 1.91243 39.6345 2.33842L39.6408 2.36888C39.7188 2.74904 39.7224 3.14112 39.6513 3.52269C39.5803 3.90426 39.436 4.26783 39.2266 4.59265C39.0173 4.91747 38.7472 5.19715 38.4315 5.41571C38.1159 5.63427 37.7611 5.78743 37.387 5.86642L37.358 5.87277C36.8684 5.96175 36.3874 6.09413 35.8985 6.2067C35.6561 6.27026 35.415 6.34057 35.1721 6.40717L34.8078 6.50841L34.4464 6.62164L33.7218 6.85069L33.0022 7.10405C32.7605 7.18551 32.523 7.27874 32.2846 7.37168C32.0468 7.46602 31.805 7.55222 31.5692 7.65355C30.618 8.04168 29.6803 8.47983 28.7499 8.94748C26.877 9.90594 25.0748 11.0011 23.3573 12.2244C22.4915 12.8406 21.6459 13.4902 20.8206 14.1731C20.4069 14.5128 20.0032 14.8642 19.604 15.2214C19.4048 15.4002 19.2079 15.5814 19.0137 15.7649C18.9654 15.8102 18.9171 15.8561 18.8686 15.9025C18.751 16.016 18.597 16.0826 18.435 16.0902C18.273 16.0978 18.1137 16.0458 17.9863 15.9437L17.9809 15.9394Z" fill="white"/>
<path d="M55.5097 29.8611C55.1897 29.8583 54.8706 29.8233 54.5573 29.7569C54.216 29.6876 53.892 29.5487 53.6047 29.3486C53.3005 29.133 53.0674 28.8287 52.9358 28.476C52.7763 27.9993 52.7464 27.4876 52.8492 26.9952L53.8094 20.8625C53.8805 20.2221 54.1049 19.609 54.4629 19.0773C54.7662 18.6578 55.1814 18.3356 55.6593 18.1486C56.16 17.9577 56.6911 17.8626 57.2258 17.8684C58.0129 17.8684 58.8001 17.8898 59.5872 17.9325C60.3745 17.9752 61.1825 18.034 62.0117 18.1086L61.6023 20.7345H57.6981C57.5742 20.7208 57.4489 20.7345 57.3308 20.7747C57.2125 20.8147 57.1042 20.8802 57.0131 20.9666C56.8637 21.1646 56.7687 21.3995 56.7377 21.6472L56.6274 22.3996L60.5003 22.5598L60.1224 25.0257L56.1867 25.1857L56.0449 26.1144C56.0225 26.2639 56.0305 26.4165 56.0686 26.5626C56.0851 26.6241 56.1139 26.6813 56.1533 26.7309C56.1925 26.7806 56.2414 26.8214 56.2968 26.8509C56.4441 26.922 56.6064 26.9548 56.7692 26.947H60.642L60.2327 29.5728C59.4978 29.6476 58.7474 29.7144 57.9814 29.773C57.2151 29.8315 56.3912 29.8608 55.5097 29.8611Z" fill="white"/>
<path d="M60.9724 29.7651L65.1445 24.6252L65.9788 27.4273L64.0897 29.7651H60.9724ZM67.0807 29.7651L65.1759 26.4346L62.1373 21.1348H65.2546L67.4429 24.9135L70.2136 29.7651H67.0807ZM67.254 26.5308L66.152 24.017L68.1041 21.1348H71.3786L67.254 26.5308Z" fill="white"/>
<path d="M70.2136 33.5597L72.0871 21.5831C72.916 21.4229 73.6849 21.2922 74.3934 21.1908C75.1264 21.0878 75.8655 21.0369 76.6053 21.0386C77.6862 21.0386 78.434 21.3056 78.8488 21.8394C79.2632 22.3731 79.4705 23.1578 79.4705 24.1929C79.4705 24.4599 79.4575 24.7401 79.4313 25.0333C79.405 25.3272 79.3656 25.634 79.3132 25.9541C79.2128 26.7553 78.9385 27.5237 78.5103 28.2037C78.1601 28.7409 77.6768 29.1745 77.1091 29.4608C76.5641 29.7274 75.9666 29.8644 75.3616 29.861C75.0745 29.8615 74.7876 29.8399 74.5037 29.7969C74.2883 29.773 74.0783 29.7135 73.8819 29.6208L73.2678 33.5597H70.2136ZM74.9838 27.235C75.2075 27.2398 75.4282 27.1816 75.6214 27.067C75.8301 26.9252 75.9941 26.725 76.0937 26.4907C76.2481 26.1366 76.3516 25.7618 76.4008 25.3777C76.4215 25.2605 76.4372 25.151 76.4478 25.0496C76.4582 24.9511 76.4634 24.8523 76.4637 24.7535C76.4859 24.4295 76.4292 24.1049 76.2984 23.8086C76.2383 23.7112 76.1527 23.6325 76.0513 23.5817C75.9499 23.5307 75.8364 23.5095 75.7238 23.5205H74.8265L74.2596 27.1231C74.3148 27.1491 74.3731 27.1679 74.4328 27.1792C74.506 27.195 74.5903 27.2086 74.6847 27.2192C74.7841 27.2301 74.8839 27.2353 74.9838 27.235Z" fill="white"/>
<path d="M83.5636 29.8609C82.8904 29.8926 82.22 29.7551 81.6114 29.4607C81.1438 29.211 80.7764 28.8034 80.5724 28.3079C80.3499 27.7377 80.2428 27.1278 80.2574 26.5145C80.2569 26.2472 80.2701 25.9799 80.297 25.7142C80.323 25.4577 80.357 25.2123 80.3992 24.9775C80.5008 24.1467 80.7861 23.3503 81.2337 22.6477C81.6142 22.0913 82.1484 21.6623 82.7686 21.4149C83.4551 21.1528 84.1843 21.0252 84.9175 21.0386C85.3189 21.0389 85.7192 21.0765 86.1139 21.1508C86.4961 21.2194 86.8637 21.3547 87.2003 21.551C87.5293 21.7471 87.801 22.029 87.9874 22.3676C88.2034 22.7922 88.3067 23.2668 88.2867 23.7445C88.3048 24.2651 88.2136 24.7836 88.0189 25.2655C87.8616 25.6348 87.6017 25.9492 87.271 26.1704C86.9319 26.3859 86.555 26.5327 86.1612 26.6025C85.7146 26.6851 85.2613 26.7252 84.8072 26.7229C84.4924 26.7229 84.2038 26.712 83.9414 26.6907C83.7189 26.6752 83.498 26.6432 83.2803 26.5945C83.2684 26.6445 83.2606 26.6954 83.2566 26.7468C83.2513 26.8054 83.2486 26.8613 83.2488 26.9147C83.2489 27.03 83.2848 27.1422 83.3512 27.2356C83.4176 27.329 83.5112 27.3988 83.6188 27.4353C84.0005 27.5689 84.4042 27.626 84.8072 27.6033H87.6252L87.3421 29.4127C86.7861 29.5458 86.2237 29.65 85.6574 29.7249C84.9632 29.8183 84.2637 29.8639 83.5636 29.8609ZM84.083 25.0414C84.379 25.0553 84.6751 25.0146 84.9569 24.9214C85.125 24.8639 85.2657 24.7437 85.3504 24.5851C85.4215 24.4269 85.4565 24.2545 85.4527 24.0806C85.4577 23.9886 85.4442 23.8964 85.413 23.8098C85.3819 23.723 85.3337 23.6437 85.2717 23.5765C85.1951 23.5097 85.1064 23.4591 85.0104 23.4274C84.9145 23.3958 84.8132 23.384 84.7128 23.3923C84.5026 23.386 84.2959 23.4477 84.1224 23.5684C83.9448 23.705 83.8061 23.8876 83.721 24.0967C83.6023 24.379 83.5177 24.6746 83.469 24.9775C83.5739 24.9882 83.6788 25.0016 83.7839 25.0175C83.8829 25.0329 83.9829 25.0409 84.083 25.0414Z" fill="white"/>
<path d="M88.5222 29.7648L89.8603 21.1345H92.5999L92.7414 22.2873C93.0088 21.951 93.3216 21.6545 93.6704 21.4067C94.0266 21.1582 94.4506 21.0294 94.8825 21.0385C95.0294 21.0385 95.158 21.0438 95.2681 21.0545C95.3825 21.066 95.4958 21.0874 95.6067 21.1184L95.1501 24.2247H94.2369C93.8494 24.2164 93.4632 24.2759 93.0955 24.4008C92.826 24.4907 92.5732 24.6261 92.3478 24.8012L91.5764 29.7648L88.5222 29.7648Z" fill="white"/>
<path d="M95.355 29.7652L96.6931 21.1349H99.7473L98.4092 29.7652H95.355ZM97.2126 20.046C97.1657 20.0482 97.1188 20.0401 97.0754 20.0221C97.0319 20.0041 96.9929 19.9768 96.9607 19.9421C96.9293 19.9068 96.9071 19.8643 96.8961 19.8182C96.8851 19.7719 96.8856 19.7238 96.8976 19.6778L97.1652 17.9006C97.1725 17.7884 97.2229 17.6836 97.3053 17.6089C97.3879 17.5339 97.4958 17.495 97.6063 17.5004H99.999C100.046 17.4956 100.093 17.5034 100.136 17.5231C100.179 17.5428 100.216 17.5736 100.243 17.6124C100.292 17.6997 100.306 17.8029 100.282 17.9006L100.015 19.6778C100.006 19.781 99.9592 19.877 99.8829 19.9455C99.8067 20.0141 99.7073 20.0502 99.6055 20.046L97.2126 20.046Z" fill="white"/>
<path d="M103.447 29.8609C102.774 29.8926 102.103 29.7551 101.495 29.4607C101.027 29.211 100.66 28.8034 100.456 28.3079C100.233 27.7377 100.126 27.1278 100.141 26.5145C100.14 26.2472 100.153 25.9799 100.18 25.7142C100.206 25.4577 100.24 25.2123 100.282 24.9775C100.384 24.1467 100.669 23.3503 101.117 22.6477C101.497 22.0915 102.032 21.6625 102.652 21.4149C103.339 21.1528 104.068 21.0252 104.801 21.0386C105.202 21.0389 105.603 21.0765 105.997 21.1508C106.379 21.2194 106.747 21.3548 107.084 21.551C107.413 21.7471 107.684 22.029 107.871 22.3676C108.087 22.7922 108.19 23.2668 108.17 23.7445C108.188 24.2651 108.097 24.7836 107.902 25.2655C107.745 25.6348 107.485 25.9492 107.154 26.1704C106.815 26.3859 106.438 26.5327 106.045 26.6025C105.598 26.6851 105.145 26.7252 104.691 26.7229C104.376 26.7229 104.087 26.712 103.825 26.6907C103.602 26.6752 103.381 26.6432 103.164 26.5945C103.152 26.6445 103.144 26.6954 103.14 26.7468C103.134 26.8054 103.132 26.8615 103.132 26.9147C103.132 27.03 103.168 27.1422 103.234 27.2356C103.301 27.329 103.394 27.3988 103.502 27.4353C103.884 27.5689 104.287 27.626 104.691 27.6033H107.508L107.225 29.4127C106.669 29.5458 106.107 29.65 105.541 29.7249C104.847 29.8183 104.147 29.8639 103.447 29.8609ZM103.966 25.0414C104.262 25.0553 104.559 25.0146 104.84 24.9214C105.008 24.8639 105.149 24.7437 105.234 24.5851C105.305 24.4269 105.34 24.2545 105.336 24.0806C105.341 23.9886 105.328 23.8964 105.296 23.8098C105.265 23.723 105.217 23.6437 105.155 23.5765C105.079 23.5097 104.99 23.4591 104.894 23.4275C104.798 23.3958 104.697 23.384 104.596 23.3923C104.386 23.386 104.179 23.4477 104.006 23.5684C103.828 23.7052 103.69 23.8876 103.604 24.0967C103.486 24.3788 103.401 24.6746 103.353 24.9775C103.457 24.9882 103.562 25.0016 103.667 25.0175C103.766 25.0329 103.866 25.0409 103.966 25.0414Z" fill="white"/>
<path d="M108.39 29.7648L109.728 21.1345H112.278L112.656 21.9671C113.001 21.6937 113.383 21.4725 113.79 21.3106C114.277 21.1208 114.795 21.0284 115.317 21.0386C115.708 21.0276 116.096 21.1098 116.45 21.2786C116.749 21.4245 117.001 21.6552 117.175 21.943C117.346 22.2414 117.434 22.5823 117.426 22.9279C117.426 23.1306 117.419 23.3628 117.403 23.6244C117.387 23.8861 117.332 24.3103 117.238 24.8972L116.482 29.7648H113.428L114.168 24.9933C114.189 24.8439 114.204 24.7238 114.215 24.6329C114.224 24.5614 114.229 24.4892 114.231 24.417C114.236 24.3358 114.224 24.2542 114.195 24.1783C114.167 24.1022 114.122 24.0334 114.065 23.9764C113.908 23.8607 113.715 23.8066 113.522 23.8246C113.287 23.8256 113.054 23.8832 112.845 23.9925C112.633 24.0986 112.441 24.2424 112.278 24.417L111.444 29.7648H108.39Z" fill="white"/>
<path d="M121.394 29.8613C120.814 29.875 120.238 29.766 119.701 29.5409C119.228 29.3314 118.841 28.9605 118.607 28.4922C118.327 27.8677 118.198 27.1843 118.229 26.4986C118.229 26.3173 118.243 26.0905 118.269 25.8181C118.295 25.546 118.329 25.2604 118.371 24.9616C118.465 24.1437 118.728 23.3552 119.143 22.6479C119.472 22.1109 119.948 21.6825 120.512 21.4151C121.082 21.1591 121.7 21.031 122.323 21.0389C122.826 21.0399 123.327 21.0962 123.818 21.2069C124.322 21.3191 124.821 21.4552 125.314 21.6152L125.031 23.3925H123.063C122.736 23.3745 122.413 23.4644 122.142 23.6488C121.906 23.8334 121.728 24.0835 121.63 24.3692C121.504 24.7175 121.409 25.0767 121.346 25.4421C121.315 25.645 121.294 25.8078 121.284 25.9303C121.273 26.0532 121.268 26.1413 121.268 26.1946C121.26 26.4488 121.303 26.7021 121.394 26.9392C121.469 27.1262 121.601 27.2835 121.772 27.3874C121.964 27.4952 122.182 27.5477 122.401 27.5396H124.495L124.227 29.285C123.838 29.4634 123.432 29.6028 123.015 29.7009C122.482 29.8172 121.938 29.8711 121.394 29.8613Z" fill="white"/>
<path d="M125.25 29.7652L126.589 21.1349H129.643L128.305 29.7652H125.25ZM127.108 20.046C127.061 20.0482 127.014 20.0401 126.971 20.0221C126.928 20.0041 126.888 19.9768 126.856 19.9421C126.825 19.9068 126.803 19.8643 126.792 19.8182C126.781 19.7719 126.781 19.7238 126.793 19.6778L127.061 17.9006C127.068 17.7884 127.118 17.6836 127.201 17.6089C127.283 17.5339 127.392 17.495 127.502 17.5004H129.895C129.941 17.4956 129.989 17.5034 130.031 17.5231C130.074 17.5428 130.111 17.5736 130.139 17.6124C130.188 17.6997 130.202 17.8029 130.178 17.9006L129.91 19.6778C129.902 19.781 129.855 19.877 129.778 19.9455C129.702 20.0141 129.603 20.0502 129.501 20.046L127.108 20.046Z" fill="white"/>
<path d="M132.162 29.8609C131.78 29.8627 131.406 29.7546 131.083 29.5487C130.728 29.3112 130.451 28.971 130.288 28.5718C130.07 28.0262 129.968 27.4395 129.989 26.8507C129.99 26.5078 130.014 26.1654 130.06 25.8258C130.107 25.4736 130.147 25.1909 130.178 24.9773C130.279 24.2035 130.536 23.4592 130.934 22.7917C131.296 22.2149 131.815 21.7584 132.429 21.4787C133.161 21.165 133.95 21.015 134.743 21.0385C135.261 21.0358 135.778 21.0841 136.286 21.1824C136.733 21.2679 137.171 21.3967 137.593 21.5669C137.934 21.7006 138.257 21.8783 138.553 22.0952L137.357 29.7648H134.617L134.428 28.932C134.25 29.0942 134.055 29.2364 133.846 29.3564C133.595 29.5051 133.328 29.6259 133.051 29.7166C132.764 29.8125 132.464 29.8612 132.162 29.8609ZM133.72 27.379C133.938 27.3851 134.153 27.3298 134.342 27.219C134.484 27.137 134.614 27.0344 134.728 26.9146L135.247 23.6323C135.169 23.5997 135.087 23.5755 135.003 23.5602C134.871 23.5325 134.737 23.5191 134.602 23.5202C134.353 23.5131 134.107 23.5858 133.901 23.7284C133.699 23.8771 133.536 24.0752 133.429 24.3047C133.301 24.5729 133.214 24.859 133.169 25.1534C133.127 25.3775 133.096 25.5938 133.075 25.8019C133.054 26.0099 133.043 26.1676 133.043 26.274C133.041 26.5313 133.087 26.7864 133.177 27.0268C133.216 27.1385 133.291 27.2336 133.389 27.2973C133.488 27.361 133.604 27.3899 133.72 27.379Z" fill="white"/>
<path d="M142.143 29.8609C141.733 29.8609 141.369 29.8504 141.049 29.829C140.728 29.8075 140.434 29.7755 140.167 29.7329C139.915 29.6938 139.665 29.6402 139.419 29.5727C139.188 29.5088 138.962 29.4395 138.742 29.3646L139.026 27.5551H142.835C142.952 27.5609 143.067 27.5302 143.166 27.4671C143.202 27.446 143.233 27.4171 143.258 27.3827C143.282 27.3482 143.299 27.3088 143.308 27.2671L143.339 27.0749C143.347 27.0407 143.352 27.0059 143.355 26.9708V26.9308C143.355 26.7705 143.224 26.6905 142.961 26.6907H141.891C141.458 26.6952 141.027 26.6278 140.616 26.4906C140.254 26.3757 139.932 26.1591 139.687 25.866C139.446 25.5543 139.323 25.1651 139.34 24.7692C139.34 24.6519 139.343 24.5293 139.348 24.401C139.354 24.2669 139.367 24.1332 139.388 24.0006L139.482 23.4404C139.56 22.997 139.732 22.5763 139.986 22.2074C140.282 21.811 140.688 21.513 141.151 21.3508C141.83 21.1182 142.544 21.0124 143.26 21.0385C143.644 21.0396 144.028 21.0609 144.41 21.1026C144.808 21.1453 145.194 21.204 145.567 21.2787C145.896 21.3414 146.22 21.4325 146.535 21.551L146.252 23.3602H142.678C142.559 23.3525 142.44 23.3745 142.331 23.4243C142.291 23.4516 142.256 23.487 142.229 23.5282C142.202 23.5694 142.183 23.6159 142.174 23.6645L142.158 23.7286C142.148 23.7681 142.14 23.8082 142.135 23.8486C142.13 23.883 142.127 23.9179 142.127 23.9527C142.125 24.0235 142.151 24.0923 142.198 24.1449C142.291 24.2122 142.407 24.2408 142.52 24.2249H143.796C144.408 24.1927 145.016 24.361 145.527 24.7053C145.731 24.8473 145.897 25.0389 146.01 25.2624C146.123 25.4862 146.179 25.735 146.173 25.9862C146.173 26.1143 146.17 26.2478 146.165 26.3864C146.16 26.5259 146.147 26.6649 146.126 26.8029L146.015 27.5551C145.979 27.933 145.848 28.295 145.636 28.6072C145.424 28.9196 145.138 29.172 144.803 29.3405C143.967 29.7194 143.057 29.8975 142.143 29.8609Z" fill="white"/>
<path d="M156.644 19.5935L156.52 20.0625C156.273 20.9177 156.09 21.7906 155.973 22.6739C155.958 22.8093 155.901 22.8771 155.804 22.8771C155.782 22.8794 155.761 22.8739 155.742 22.8619C155.724 22.8497 155.711 22.8317 155.704 22.8107C155.679 22.6805 155.666 22.5483 155.665 22.4158C155.609 21.4257 155.354 20.7246 154.901 20.3127C154.505 19.9249 153.979 19.704 153.429 19.6951C152.748 19.7052 152.094 19.9727 151.596 20.4456C150.938 21.0882 150.438 21.8798 150.136 22.756C149.724 23.8226 149.517 24.9598 149.526 26.1059C149.526 27.1329 149.751 27.9407 150.202 28.5296C150.401 28.8084 150.664 29.0344 150.968 29.1881C151.271 29.3419 151.607 29.419 151.946 29.4129C152.578 29.3968 153.194 29.2034 153.725 28.8539C154.338 28.4757 154.853 27.9545 155.227 27.3334C155.319 27.1875 155.399 27.1144 155.466 27.1144C155.485 27.1117 155.504 27.1134 155.522 27.1195C155.54 27.1256 155.556 27.1359 155.57 27.1497C155.583 27.1634 155.593 27.18 155.599 27.1983C155.605 27.2168 155.607 27.2363 155.604 27.2554C155.604 27.3856 155.423 27.6775 155.062 28.1309C154.615 28.6523 154.07 29.0778 153.459 29.3819C152.759 29.7605 151.977 29.9567 151.184 29.9524C150.714 29.9753 150.247 29.8827 149.82 29.6827C149.393 29.4827 149.02 29.181 148.732 28.8033C148.14 28.0141 147.831 27.0434 147.856 26.0513C147.867 24.9154 148.138 23.7979 148.648 22.7871C149.128 21.7547 149.886 20.8818 150.835 20.2697C151.603 19.7315 152.506 19.424 153.438 19.3823C153.954 19.3998 154.46 19.5305 154.921 19.7654C155.142 19.8864 155.381 19.9685 155.629 20.0078C155.763 19.9895 155.891 19.9432 156.006 19.872C156.121 19.8007 156.221 19.7059 156.298 19.5935C156.323 19.5574 156.355 19.5269 156.392 19.504C156.429 19.481 156.47 19.4662 156.513 19.4606C156.531 19.4581 156.549 19.4596 156.566 19.4656C156.583 19.4713 156.598 19.481 156.611 19.4939C156.624 19.5068 156.633 19.5225 156.639 19.5398C156.645 19.5571 156.646 19.5755 156.644 19.5935Z" fill="white"/>
<path d="M160.985 19.0464C160.888 19.4061 160.442 20.8836 159.648 23.4793L158.218 28.3032C158.114 28.6618 158.035 29.0273 157.979 29.3968C157.979 29.4807 158.013 29.5227 158.079 29.5227C158.223 29.5227 158.507 29.3429 158.933 28.9834C159.284 28.7051 159.593 28.3757 159.849 28.0059C159.972 27.8131 160.064 27.7168 160.126 27.7168C160.144 27.7141 160.162 27.7158 160.179 27.7216C160.196 27.7274 160.211 27.7372 160.224 27.7501C160.237 27.763 160.246 27.7785 160.252 27.796C160.257 27.8133 160.259 27.8316 160.257 27.8497C160.257 28.0269 159.971 28.4179 159.399 29.0224C158.827 29.627 158.272 29.9292 157.734 29.9294C157.573 29.9287 157.419 29.8653 157.303 29.7521C157.236 29.6841 157.184 29.6022 157.151 29.5119C157.118 29.4217 157.104 29.3251 157.111 29.229C157.114 28.8354 157.169 28.444 157.272 28.0647C157.38 27.6555 157.877 26.0123 158.764 23.1353C159.348 21.2486 159.64 20.1722 159.64 19.9063C159.64 19.6198 159.34 19.4661 158.74 19.4451C158.515 19.44 158.402 19.3878 158.402 19.2888C158.402 19.1793 158.515 19.1245 158.74 19.1245L160.985 19.0464Z" fill="white"/>
<path d="M167.42 23.1978C167.336 23.4634 167.166 23.95 166.904 24.6579C166.013 27.0319 165.567 28.4868 165.567 29.0226C165.562 29.0811 165.579 29.1394 165.613 29.1867C165.63 29.2056 165.652 29.2204 165.676 29.2297C165.7 29.2392 165.726 29.2429 165.751 29.2411C165.91 29.2411 166.126 29.1029 166.398 28.8266C166.636 28.5859 166.851 28.3214 167.036 28.0373C167.154 27.8444 167.258 27.7479 167.345 27.7477C167.361 27.7454 167.378 27.7469 167.395 27.7523C167.41 27.7578 167.425 27.7669 167.436 27.7791C167.448 27.7913 167.458 27.8061 167.463 27.8223C167.468 27.8386 167.47 27.8559 167.466 27.8728C167.466 28.0868 167.191 28.479 166.64 29.0497C166.089 29.6202 165.603 29.9055 165.183 29.9057C165.105 29.9108 165.027 29.8959 164.957 29.8623C164.886 29.8289 164.825 29.7779 164.779 29.714C164.677 29.5409 164.63 29.3404 164.644 29.1394C164.664 28.5053 164.773 27.8771 164.967 27.2741C163.845 29.0233 162.894 29.8977 162.115 29.8979C162.016 29.8964 161.918 29.873 161.828 29.8291C161.739 29.7853 161.659 29.7221 161.596 29.6441C161.448 29.4821 161.366 29.2682 161.369 29.0468C161.37 28.8112 161.398 28.5766 161.454 28.3479C161.51 28.1108 161.72 27.4379 162.084 26.329C162.448 25.2201 162.669 24.5719 162.745 24.3846C162.828 24.2031 162.875 24.0068 162.884 23.8069C162.887 23.7607 162.873 23.7149 162.845 23.6785C162.829 23.6629 162.809 23.651 162.788 23.6435C162.767 23.6362 162.744 23.6334 162.722 23.6356C162.502 23.6356 162.099 23.9873 161.514 24.6911C161.288 24.9672 161.142 25.1053 161.076 25.1053C161.061 25.1075 161.046 25.1062 161.032 25.1014C161.018 25.0967 161.005 25.0887 160.995 25.078C160.984 25.0674 160.976 25.0545 160.972 25.0403C160.967 25.026 160.966 25.0109 160.968 24.996C160.968 24.8136 161.236 24.4526 161.772 23.913C162.308 23.3737 162.778 23.104 163.183 23.104C163.278 23.1042 163.371 23.1254 163.456 23.1657C163.542 23.2062 163.618 23.265 163.679 23.3381C163.816 23.483 163.892 23.6763 163.891 23.8771C163.811 24.4648 163.643 25.0365 163.391 25.5716C162.715 27.2691 162.377 28.3856 162.376 28.9214C162.376 29.0185 162.404 29.1136 162.457 29.1945C162.476 29.2307 162.504 29.2614 162.539 29.2833C162.573 29.3053 162.613 29.3177 162.653 29.3192C162.819 29.2931 162.975 29.2231 163.107 29.1165C163.492 28.7743 163.83 28.3815 164.114 27.9489C164.615 27.256 165.047 26.5146 165.405 25.7354L166.581 23.1978C166.675 23.1654 166.774 23.1494 166.874 23.1508C167.056 23.1537 167.238 23.1693 167.42 23.1978Z" fill="white"/>
<path d="M171.977 19.0933L170.659 23.777C171.402 23.2971 171.979 23.0571 172.394 23.0571C172.635 23.0491 172.871 23.1073 173.08 23.2256C173.29 23.3437 173.464 23.5176 173.584 23.7287C173.869 24.2058 174.013 24.756 173.999 25.3139C173.989 26.4907 173.549 27.6213 172.761 28.4846C171.937 29.4476 171.116 29.9291 170.302 29.9293C169.849 29.9474 169.405 29.7849 169.068 29.476C168.903 29.3084 168.774 29.1069 168.691 28.8847C168.609 28.6624 168.572 28.4248 168.587 28.1877C168.587 27.662 168.796 26.6647 169.21 25.1957L170.618 20.2813C170.666 20.1405 170.694 19.9932 170.701 19.8438C170.701 19.5519 170.457 19.3929 169.972 19.367C169.849 19.3618 169.787 19.3123 169.787 19.2184C169.787 19.1351 169.839 19.0933 169.94 19.0933L171.17 19.1246C171.417 19.1246 171.685 19.1141 171.977 19.0933ZM170.609 29.5461C171.22 29.5461 171.757 29.0984 172.224 28.2029C172.705 27.2442 172.945 26.1794 172.923 25.1034C172.946 24.6835 172.875 24.2638 172.711 23.8773C172.656 23.7539 172.566 23.6495 172.454 23.5773C172.341 23.5051 172.209 23.4683 172.076 23.4714C171.712 23.4714 171.333 23.6848 170.941 24.1112C170.483 24.6704 170.161 25.3329 170.004 26.0436C169.809 26.684 169.692 27.3462 169.657 28.0156C169.63 28.4132 169.713 28.8102 169.894 29.1633C169.969 29.2867 170.074 29.3872 170.201 29.4547C170.326 29.522 170.467 29.5535 170.609 29.5461Z" fill="white"/>
</g>
<defs>
<clipPath id="clip0_167_745">
<rect width="174" height="50" fill="white"/>
</clipPath>
</defs>
</svg>
