<svg width="174" height="50" viewBox="0 0 174 50" fill="none" xmlns="http://www.w3.org/2000/svg">
<g clip-path="url(#clip0_311_2004)">
<path d="M17.3116 7.64125C17.4096 7.77583 17.4535 7.94337 17.4343 8.10974C17.4151 8.27611 17.3344 8.42878 17.2083 8.53665C14.9463 10.4731 12.8674 12.6208 10.9991 14.9516C9.03502 17.3949 7.39352 20.089 6.11637 22.9652C5.50601 24.3685 5.01997 25.8243 4.66405 27.3155C4.62279 27.4996 4.57321 27.6821 4.53846 27.8667L4.43405 28.4196L4.38146 28.6954L4.34244 28.9722L4.26355 29.5243C4.23902 29.708 4.22749 29.8923 4.20843 30.0757C4.194 30.2592 4.16657 30.4423 4.16369 30.6252C4.14954 30.9907 4.12314 31.3554 4.13498 31.7166C4.1357 32.4297 4.18868 33.1418 4.29352 33.847C4.3582 34.1907 4.40602 34.5373 4.49729 34.8696L4.55738 35.1208C4.57506 35.2047 4.5975 35.2874 4.62456 35.3688L4.77498 35.8568C4.79849 35.9381 4.82654 36.018 4.85898 36.0959L4.94923 36.3319C5.00454 36.4902 5.06789 36.6453 5.13906 36.7968L5.34638 37.2504C5.42352 37.3974 5.50693 37.5408 5.58528 37.6862C5.74412 37.9761 5.9172 38.2576 6.10385 38.5297C6.14743 38.6002 6.19532 38.6676 6.24729 38.7319L6.3974 38.9299C6.49981 39.0602 6.58845 39.1984 6.70312 39.3207L7.02803 39.6977C7.13555 39.8235 7.2598 39.9376 7.37354 40.0584L7.54695 40.2376C7.60595 40.2962 7.67029 40.351 7.73137 40.4079C7.85612 40.5198 7.97516 40.6359 8.10241 40.7449C8.61388 41.1819 9.15653 41.5797 9.72588 41.935L9.93881 42.0682L10.1562 42.1923C10.3 42.2777 10.446 42.3552 10.5921 42.431C10.869 42.5777 11.1532 42.7098 11.4437 42.8264L11.5367 42.8608L11.6498 42.8993L11.8752 42.9769L12.0995 43.0556C12.1749 43.08 12.2529 43.0986 12.3292 43.1207C12.4833 43.1617 12.6337 43.2103 12.7887 43.2473L13.256 43.3492C15.7636 43.8519 18.4765 43.4853 21.0426 42.5538C22.3405 42.0675 23.5926 41.4629 24.7838 40.7474C25.9921 40.012 27.1428 39.1824 28.2255 38.2666C29.417 37.2591 30.533 36.1627 31.5643 34.9865C32.2738 34.1829 33.2584 33.6854 34.3168 33.5956C35.3751 33.5057 36.4271 33.8305 37.2579 34.5034C37.7303 34.8863 38.1155 35.3691 38.3869 35.9181C38.6582 36.4671 38.8092 37.0695 38.8294 37.6837C38.8495 38.2979 38.7384 38.9092 38.5037 39.4755C38.2692 40.0418 37.9165 40.5495 37.4701 40.9637C36.031 42.3103 34.4953 43.5458 32.8754 44.6596C31.377 45.6903 29.8022 46.6009 28.165 47.383C26.5011 48.1687 24.7698 48.7975 22.9931 49.2616L22.3151 49.4199L21.9765 49.4979C21.8629 49.5221 21.7476 49.5422 21.6333 49.5644L20.947 49.6925C20.7163 49.7293 20.4839 49.7605 20.2527 49.7939L19.9057 49.8427C19.7894 49.8568 19.6718 49.8666 19.5552 49.8786L18.854 49.9456L18.1469 49.9819C18.0289 49.9869 17.9116 49.9944 17.7935 49.9971L17.4375 49.9985C15.5151 50.0231 13.6001 49.751 11.7579 49.1916L11.0655 48.9626C10.8362 48.8816 10.6103 48.7867 10.3837 48.6982C10.2708 48.6524 10.157 48.6097 10.0453 48.5607L9.71251 48.4067L9.38086 48.2514L9.21547 48.1734L9.03425 48.0817C8.59762 47.8514 8.17261 47.5991 7.76081 47.3256C7.56077 47.1944 7.363 47.0611 7.17178 46.9211L6.88295 46.7135L6.6018 46.4967C5.85332 45.9175 5.14857 45.282 4.49342 44.5957C4.32952 44.4236 4.17346 44.2421 4.01433 44.0653C3.93577 43.9757 3.85499 43.8889 3.77887 43.7967L3.55444 43.5161C3.40712 43.327 3.25263 43.1459 3.11358 42.9495L2.69947 42.3591C2.55762 42.1665 2.43999 41.9526 2.31219 41.7487L2.12488 41.4394C2.06183 41.337 2.00028 41.2334 1.94641 41.1244C1.72539 40.6927 1.4906 40.2715 1.31188 39.8187C1.21771 39.5955 1.12051 39.374 1.03172 39.1494L0.795568 38.4639C0.712381 38.2371 0.653168 38.004 0.589928 37.7725L0.496271 37.4252C0.464525 37.3097 0.433668 37.194 0.412061 37.0767L0.269857 36.3765C0.244286 36.2602 0.226163 36.1432 0.210967 36.0259L0.161806 35.6747C0.0861777 35.2072 0.0616919 34.7394 0.024495 34.2732C-0.0224238 33.3518 -0.00191796 32.4282 0.0858238 31.5098C0.117979 31.0539 0.190744 30.6076 0.253701 30.1602C0.28116 29.9356 0.332987 29.7175 0.37267 29.4966C0.416843 29.2768 0.454323 29.0552 0.504672 28.8381L0.662048 28.1889L0.741169 27.8652L0.833701 27.5465L1.0194 26.9105C1.08156 26.699 1.15793 26.4932 1.22668 26.2847C1.78933 24.6436 2.49485 23.0569 3.33481 21.5434C4.99484 18.5989 7.02684 15.8881 9.37899 13.4803C11.5394 11.2643 13.8993 9.25908 16.4277 7.49108C16.5655 7.39484 16.7345 7.3567 16.8995 7.3847C17.0643 7.41271 17.212 7.5047 17.3116 7.64125Z" fill="#048645"/>
<path d="M10.3049 38.4619C10.1681 38.3515 10.0782 38.1922 10.0536 38.0164C10.0291 37.8406 10.0718 37.662 10.173 37.5174C10.2111 37.4626 10.2496 37.4077 10.2885 37.353C10.4505 37.123 10.6152 36.8955 10.7825 36.6709C11.1177 36.2215 11.4595 35.7766 11.8131 35.342C12.517 34.469 13.2538 33.6214 14.0233 32.7991C15.5736 31.1403 17.2399 29.5978 19.0092 28.1838C19.9057 27.4765 20.8277 26.7912 21.7865 26.1491C22.0237 25.9845 22.2699 25.8338 22.5122 25.6755C22.7551 25.5184 22.9985 25.3607 23.2485 25.2141L23.9957 24.7651L24.7586 24.3385L25.142 24.1261L25.5319 23.925C25.7924 23.7918 26.0522 23.6552 26.3154 23.5248C26.8478 23.278 27.3753 23.0124 27.9224 22.789C27.945 22.779 27.9675 22.7692 27.99 22.7592C28.3835 22.5882 28.8094 22.508 29.2372 22.5246C29.6648 22.5412 30.0835 22.6541 30.4632 22.8551C30.8427 23.0562 31.1737 23.3404 31.4322 23.6872C31.6908 24.034 31.8707 24.4349 31.9584 24.861L31.9647 24.8914C32.0428 25.2716 32.0463 25.6636 31.9753 26.0452C31.9042 26.4267 31.7599 26.7903 31.5507 27.1153C31.3413 27.44 31.0711 27.7197 30.7554 27.9382C30.4398 28.1569 30.085 28.3099 29.7111 28.3889L29.6819 28.3954C29.1925 28.4844 28.7113 28.6167 28.2224 28.7293C27.98 28.7928 27.7389 28.8632 27.4962 28.9296L27.1319 29.031L26.7704 29.1442L26.0457 29.3732L25.3262 29.6266C25.0844 29.708 24.8469 29.8012 24.6085 29.8943C24.3709 29.9885 24.129 30.0748 23.8931 30.1762C22.9419 30.5642 22.0042 31.0023 21.074 31.47C19.2011 32.4285 17.3987 33.5237 15.6814 34.747C14.8154 35.3632 13.9698 36.0127 13.1445 36.6956C12.7309 37.0353 12.3271 37.3867 11.928 37.7438C11.7287 37.9227 11.532 38.1039 11.3377 38.2875C11.2894 38.3327 11.2411 38.3786 11.1927 38.4251C11.075 38.5385 10.921 38.6053 10.759 38.6127C10.597 38.6203 10.4377 38.5683 10.3102 38.4663L10.3049 38.4619Z" fill="#78B645"/>
<path d="M14.799 27.0517C14.6622 26.9414 14.5723 26.7819 14.5478 26.6063C14.5233 26.4305 14.566 26.2518 14.6671 26.1073C14.7052 26.0523 14.7437 25.9976 14.7826 25.9428C14.9446 25.7128 15.1093 25.4853 15.2767 25.2606C15.6118 24.8112 15.9536 24.3664 16.3072 23.9317C17.0112 23.0587 17.7479 22.2112 18.5175 21.3888C20.0678 19.73 21.734 18.1877 23.5034 16.7736C24.3999 16.0662 25.3219 15.381 26.2806 14.7388C26.5179 14.5742 26.7641 14.4237 27.0063 14.2653C27.2492 14.1081 27.4926 13.9505 27.7427 13.8038L28.4899 13.3549L29.2528 12.9282L29.6361 12.7159L30.026 12.5149C30.2866 12.3817 30.5462 12.2449 30.8094 12.1146C31.3419 11.8679 31.8694 11.6023 32.4166 11.3789C32.4391 11.3689 32.4616 11.3589 32.4842 11.349C32.8777 11.178 33.3036 11.0978 33.7313 11.1144C34.1589 11.131 34.5777 11.2439 34.9573 11.4449C35.3369 11.646 35.6678 11.9302 35.9264 12.277C36.185 12.6239 36.3647 13.0247 36.4526 13.4507L36.4589 13.4812C36.537 13.8614 36.5405 14.2534 36.4694 14.635C36.3984 15.0166 36.2541 15.3801 36.0447 15.705C35.8355 16.0298 35.5652 16.3095 35.2496 16.528C34.934 16.7466 34.5791 16.8998 34.2053 16.9788L34.1761 16.985C33.6865 17.074 33.2055 17.2064 32.7165 17.319C32.4742 17.3825 32.2331 17.4529 31.9904 17.5195L31.6259 17.6207L31.2645 17.7339L30.5398 17.9631L29.8203 18.2163C29.5786 18.2979 29.341 18.3911 29.1026 18.484C28.8649 18.5784 28.623 18.6645 28.3873 18.7659C27.4361 19.154 26.4984 19.5922 25.5682 20.0598C23.6951 21.0182 21.8929 22.1134 20.1754 23.3367C19.3096 23.953 18.4639 24.6025 17.6387 25.2855C17.2251 25.6252 16.8212 25.9765 16.4221 26.3337C16.2229 26.5125 16.0261 26.6937 15.8318 26.8773C15.7835 26.9226 15.7352 26.9683 15.6868 27.0148C15.5691 27.1283 15.4151 27.1949 15.2531 27.2026C15.0911 27.21 14.9318 27.158 14.8044 27.056L14.799 27.0517Z" fill="#78B645"/>
<path d="M17.9807 15.9394C17.8439 15.8291 17.7539 15.6696 17.7294 15.4939C17.7049 15.3181 17.7476 15.1395 17.8489 14.9949C17.8869 14.9401 17.9254 14.8853 17.9643 14.8304C18.1263 14.6004 18.291 14.373 18.4583 14.1483C18.7934 13.699 19.1352 13.2541 19.4889 12.8194C20.1929 11.9465 20.9296 11.0988 21.6992 10.2765C23.2493 8.61775 24.9157 7.07532 26.685 5.66128C27.5816 4.95387 28.5036 4.26862 29.4623 3.62649C29.6995 3.46192 29.9458 3.31135 30.1878 3.15291C30.4309 2.9958 30.6743 2.83821 30.9242 2.69154L31.6716 2.24261L32.4343 1.8159L32.8178 1.60358L33.2075 1.40254C33.4683 1.26934 33.7278 1.13261 33.9911 1.0023C34.5236 0.755597 35.0511 0.489973 35.5983 0.266532C35.6208 0.25655 35.6433 0.246608 35.6658 0.236698C36.0594 0.0656519 36.4853 -0.0144683 36.9129 0.00212318C37.3406 0.0187147 37.7593 0.131594 38.1388 0.332626C38.5185 0.533658 38.8495 0.817839 39.1081 1.16469C39.3667 1.51153 39.5463 1.91241 39.6343 2.3384L39.6406 2.36886C39.7185 2.74903 39.7222 3.1411 39.6511 3.52267C39.58 3.90425 39.4357 4.26781 39.2264 4.59263C39.017 4.91745 38.7469 5.19713 38.4313 5.41569C38.1157 5.63425 37.7608 5.78742 37.3868 5.8664L37.3578 5.87276C36.8681 5.96173 36.3872 6.09411 35.8982 6.20668C35.6558 6.27024 35.4148 6.34055 35.1719 6.40715L34.8075 6.5084L34.4462 6.62163L33.7215 6.85068L33.002 7.10403C32.7603 7.1855 32.5227 7.27872 32.2843 7.37166C32.0466 7.46601 31.8047 7.5522 31.569 7.65354C30.6178 8.04167 29.68 8.47982 28.7497 8.94746C26.8767 9.90592 25.0745 11.0011 23.3571 12.2244C22.4913 12.8406 21.6456 13.4902 20.8204 14.1731C20.4066 14.5128 20.0029 14.8642 19.6037 15.2213C19.4045 15.4002 19.2077 15.5814 19.0135 15.7649C18.9651 15.8102 18.9169 15.856 18.8683 15.9025C18.7507 16.016 18.5968 16.0826 18.4348 16.0902C18.2728 16.0978 18.1135 16.0457 17.986 15.9437L17.9807 15.9394Z" fill="#78B645"/>
<path d="M55.5095 29.8611C55.1895 29.8582 54.8704 29.8233 54.5571 29.7568C54.2157 29.6875 53.8918 29.5487 53.6045 29.3485C53.3002 29.1329 53.0672 28.8286 52.9355 28.4759C52.7761 27.9992 52.7462 27.4875 52.849 26.9951L53.8092 20.8625C53.8803 20.2221 54.1046 19.609 54.4626 19.0772C54.7659 18.6577 55.1811 18.3355 55.6591 18.1485C56.1597 17.9577 56.6909 17.8626 57.2256 17.8683C58.0127 17.8683 58.7999 17.8897 59.587 17.9324C60.3742 17.9751 61.1823 18.0339 62.0114 18.1085L61.602 20.7345H57.6979C57.5739 20.7208 57.4486 20.7345 57.3305 20.7747C57.2122 20.8147 57.104 20.8801 57.0129 20.9665C56.8634 21.1645 56.7685 21.3994 56.7375 21.6471L56.6272 22.3995L60.5 22.5597L60.1222 25.0256L56.1864 25.1856L56.0446 26.1144C56.0223 26.2639 56.0303 26.4164 56.0683 26.5625C56.0848 26.6241 56.1137 26.6812 56.1531 26.7309C56.1923 26.7805 56.2412 26.8214 56.2965 26.8509C56.4438 26.9219 56.6062 26.9548 56.769 26.947H60.6418L60.2324 29.5728C59.4976 29.6475 58.7472 29.7143 57.9811 29.7729C57.2149 29.8314 56.391 29.8607 55.5095 29.8611Z" fill="#0A3158"/>
<path d="M60.9727 29.765L65.1448 24.6251L65.979 27.4272L64.0899 29.765H60.9727ZM67.0809 29.765L65.1761 26.4346L62.1376 21.1347H65.2549L67.4431 24.9134L70.2139 29.765H67.0809ZM67.2542 26.5307L66.1522 24.0169L68.1044 21.1347H71.3788L67.2542 26.5307Z" fill="#0A3158"/>
<path d="M70.2129 33.5597L72.0863 21.583C72.9153 21.4228 73.6842 21.2921 74.3927 21.1908C75.1257 21.0877 75.8647 21.0369 76.6046 21.0386C77.6854 21.0386 78.4333 21.3055 78.848 21.8393C79.2624 22.3731 79.4698 23.1577 79.4698 24.1929C79.4698 24.4598 79.4568 24.74 79.4306 25.0333C79.4042 25.3272 79.3649 25.634 79.3125 25.954C79.212 26.7553 78.9378 27.5236 78.5095 28.2037C78.1594 28.7408 77.6761 29.1744 77.1084 29.4607C76.5634 29.7274 75.9658 29.8643 75.3609 29.8609C75.0738 29.8614 74.7869 29.8399 74.5029 29.7968C74.2876 29.7729 74.0775 29.7134 73.8812 29.6207L73.2671 33.5597H70.2129ZM74.9831 27.235C75.2068 27.2397 75.4275 27.1816 75.6207 27.067C75.8294 26.9251 75.9933 26.7249 76.0929 26.4907C76.2474 26.1366 76.3509 25.7618 76.4001 25.3777C76.4208 25.2604 76.4364 25.1509 76.4471 25.0495C76.4575 24.9511 76.4626 24.8522 76.463 24.7534C76.4851 24.4295 76.4284 24.1049 76.2976 23.8086C76.2376 23.7111 76.152 23.6325 76.0506 23.5816C75.9492 23.5306 75.8357 23.5094 75.7231 23.5204H74.8257L74.2589 27.1231C74.3141 27.149 74.3723 27.1678 74.432 27.1792C74.5053 27.195 74.5895 27.2085 74.6839 27.2192C74.7834 27.23 74.8831 27.2353 74.9831 27.235Z" fill="#0A3158"/>
<path d="M83.5633 29.8609C82.8902 29.8926 82.2197 29.7551 81.6111 29.4607C81.1435 29.211 80.7762 28.8034 80.5722 28.3079C80.3496 27.7377 80.2425 27.1278 80.2572 26.5146C80.2567 26.2473 80.2699 25.9799 80.2967 25.7142C80.3228 25.4577 80.3568 25.2123 80.399 24.9775C80.5006 24.1468 80.7859 23.3503 81.2334 22.6477C81.614 22.0914 82.1481 21.6624 82.7684 21.4149C83.4549 21.1528 84.1841 21.0252 84.9172 21.0386C85.3186 21.0389 85.719 21.0765 86.1137 21.1508C86.4959 21.2194 86.8634 21.3547 87.2001 21.551C87.529 21.7471 87.8008 22.029 87.9871 22.3677C88.2032 22.7923 88.3064 23.2669 88.2864 23.7445C88.3046 24.2651 88.2133 24.7836 88.0187 25.2655C87.8614 25.6348 87.6014 25.9493 87.2708 26.1705C86.9316 26.3859 86.5548 26.5327 86.1609 26.6025C85.7143 26.6851 85.2611 26.7252 84.807 26.7229C84.4922 26.7229 84.2036 26.712 83.9412 26.6907C83.7186 26.6752 83.4977 26.6432 83.28 26.5946C83.2682 26.6446 83.2604 26.6954 83.2563 26.7468C83.251 26.8054 83.2483 26.8614 83.2485 26.9148C83.2487 27.03 83.2845 27.1422 83.3509 27.2356C83.4173 27.329 83.5109 27.3989 83.6185 27.4353C84.0002 27.5689 84.4039 27.626 84.807 27.6033H87.625L87.3419 29.4127C86.7859 29.5458 86.2235 29.65 85.6571 29.725C84.963 29.8184 84.2635 29.864 83.5633 29.8609ZM84.0828 25.0414C84.3788 25.0553 84.6749 25.0146 84.9566 24.9214C85.1248 24.8639 85.2654 24.7438 85.3502 24.5851C85.4212 24.427 85.4563 24.2546 85.4524 24.0807C85.4574 23.9886 85.4439 23.8964 85.4127 23.8098C85.3817 23.723 85.3335 23.6437 85.2714 23.5766C85.1949 23.5098 85.1061 23.4591 85.0102 23.4274C84.9143 23.3959 84.813 23.384 84.7126 23.3923C84.5024 23.386 84.2957 23.4477 84.1222 23.5684C83.9445 23.705 83.8059 23.8876 83.7208 24.0968C83.602 24.379 83.5174 24.6746 83.4687 24.9775C83.5737 24.9882 83.6786 25.0016 83.7837 25.0175C83.8826 25.0329 83.9827 25.0409 84.0828 25.0414Z" fill="#0A3158"/>
<path d="M88.5215 29.765L89.8596 21.1347H92.5992L92.7406 22.2875C93.008 21.9512 93.3208 21.6547 93.6697 21.4069C94.0258 21.1584 94.4499 21.0296 94.8818 21.0387C95.0286 21.0387 95.1572 21.044 95.2674 21.0547C95.3818 21.0662 95.4951 21.0876 95.606 21.1186L95.1494 24.2249H94.2362C93.8487 24.2166 93.4625 24.2761 93.0948 24.401C92.8252 24.4909 92.5725 24.6263 92.3471 24.8014L91.5757 29.765L88.5215 29.765Z" fill="#0A3158"/>
<path d="M95.3555 29.765L96.6936 21.1347H99.7478L98.4097 29.765H95.3555ZM97.2131 20.0458C97.1662 20.048 97.1193 20.0399 97.0759 20.0219C97.0324 20.0039 96.9933 19.9766 96.9611 19.9419C96.9298 19.9066 96.9076 19.8641 96.8966 19.818C96.8856 19.7717 96.8861 19.7236 96.8981 19.6776L97.1657 17.9004C97.173 17.7882 97.2234 17.6834 97.3058 17.6087C97.3884 17.5337 97.4963 17.4948 97.6068 17.5002H99.9995C100.046 17.4954 100.093 17.5032 100.136 17.5229C100.179 17.5426 100.216 17.5734 100.244 17.6122C100.293 17.6995 100.307 17.8027 100.283 17.9004L100.015 19.6776C100.007 19.7808 99.9596 19.8768 99.8834 19.9453C99.8072 20.0139 99.7077 20.05 99.606 20.0458L97.2131 20.0458Z" fill="#0A3158"/>
<path d="M103.446 29.8609C102.773 29.8926 102.103 29.7551 101.494 29.4607C101.026 29.211 100.659 28.8034 100.455 28.3079C100.232 27.7377 100.125 27.1278 100.14 26.5146C100.139 26.2473 100.153 25.9799 100.179 25.7142C100.205 25.4577 100.239 25.2123 100.282 24.9775C100.383 24.1468 100.669 23.3503 101.116 22.6477C101.497 22.0915 102.031 21.6625 102.651 21.4149C103.338 21.1528 104.067 21.0252 104.8 21.0386C105.201 21.0389 105.602 21.0765 105.997 21.1508C106.379 21.2194 106.746 21.3549 107.083 21.551C107.412 21.7471 107.683 22.029 107.87 22.3677C108.086 22.7923 108.189 23.2669 108.169 23.7445C108.187 24.2651 108.096 24.7836 107.901 25.2655C107.744 25.6348 107.484 25.9493 107.153 26.1705C106.814 26.3859 106.438 26.5327 106.044 26.6025C105.597 26.6851 105.144 26.7252 104.69 26.7229C104.375 26.7229 104.086 26.712 103.824 26.6907C103.601 26.6752 103.38 26.6432 103.163 26.5946C103.151 26.6446 103.143 26.6954 103.139 26.7468C103.133 26.8054 103.131 26.8615 103.131 26.9148C103.131 27.03 103.167 27.1422 103.234 27.2356C103.3 27.329 103.394 27.3989 103.501 27.4353C103.883 27.5689 104.287 27.626 104.69 27.6033H107.508L107.225 29.4127C106.668 29.5458 106.106 29.65 105.54 29.725C104.846 29.8184 104.146 29.864 103.446 29.8609ZM103.966 25.0414C104.262 25.0553 104.558 25.0146 104.839 24.9214C105.008 24.8639 105.148 24.7438 105.233 24.5851C105.304 24.427 105.339 24.2546 105.335 24.0807C105.34 23.9886 105.327 23.8964 105.296 23.8098C105.265 23.723 105.216 23.6437 105.154 23.5766C105.078 23.5098 104.989 23.4591 104.893 23.4276C104.797 23.3959 104.696 23.384 104.595 23.3923C104.385 23.386 104.178 23.4477 104.005 23.5684C103.827 23.7052 103.689 23.8876 103.603 24.0968C103.485 24.3788 103.4 24.6746 103.352 24.9775C103.456 24.9882 103.561 25.0016 103.666 25.0175C103.765 25.0329 103.865 25.0409 103.966 25.0414Z" fill="#0A3158"/>
<path d="M108.391 29.765L109.729 21.1347H112.279L112.657 21.9673C113.001 21.6939 113.383 21.4727 113.79 21.3108C114.277 21.121 114.796 21.0286 115.317 21.0387C115.709 21.0277 116.097 21.1099 116.451 21.2788C116.75 21.4247 117.002 21.6554 117.175 21.9432C117.347 22.2415 117.434 22.5824 117.427 22.928C117.427 23.1308 117.419 23.363 117.403 23.6245C117.388 23.8862 117.333 24.3105 117.238 24.8973L116.483 29.765H113.429L114.168 24.9934C114.189 24.8441 114.205 24.7239 114.215 24.6331C114.225 24.5615 114.23 24.4893 114.231 24.4171C114.237 24.3359 114.225 24.2544 114.196 24.1785C114.167 24.1024 114.123 24.0335 114.066 23.9766C113.909 23.8608 113.716 23.8068 113.523 23.8247C113.287 23.8257 113.055 23.8834 112.846 23.9927C112.634 24.0988 112.442 24.2425 112.279 24.4171L111.445 29.765H108.391Z" fill="#0A3158"/>
<path d="M121.394 29.8611C120.814 29.8748 120.237 29.7658 119.701 29.5407C119.228 29.3312 118.841 28.9603 118.607 28.492C118.327 27.8675 118.197 27.1841 118.229 26.4985C118.229 26.3171 118.243 26.0903 118.269 25.8179C118.295 25.5459 118.329 25.2602 118.371 24.9614C118.465 24.1435 118.728 23.355 119.143 22.6477C119.472 22.1107 119.948 21.6823 120.512 21.4149C121.082 21.1589 121.7 21.0308 122.323 21.0387C122.826 21.0398 123.327 21.096 123.818 21.2067C124.322 21.3189 124.82 21.455 125.314 21.6151L125.03 23.3923H123.062C122.736 23.3743 122.413 23.4642 122.142 23.6486C121.906 23.8332 121.728 24.0834 121.63 24.369C121.504 24.7173 121.409 25.0765 121.346 25.4419C121.315 25.6448 121.294 25.8076 121.284 25.9301C121.273 26.053 121.268 26.1411 121.268 26.1944C121.26 26.4486 121.303 26.7019 121.393 26.939C121.469 27.126 121.601 27.2833 121.772 27.3872C121.964 27.495 122.182 27.5475 122.401 27.5394H124.495L124.227 29.2848C123.837 29.4633 123.432 29.6026 123.015 29.7007C122.482 29.817 121.938 29.8709 121.394 29.8611Z" fill="#0A3158"/>
<path d="M125.25 29.765L126.588 21.1347H129.642L128.304 29.765H125.25ZM127.108 20.0458C127.061 20.048 127.014 20.0399 126.97 20.0219C126.927 20.0039 126.888 19.9766 126.856 19.9419C126.824 19.9066 126.802 19.8641 126.791 19.818C126.78 19.7717 126.781 19.7236 126.793 19.6776L127.06 17.9004C127.068 17.7882 127.118 17.6834 127.201 17.6087C127.283 17.5337 127.391 17.4948 127.501 17.5002H129.894C129.941 17.4954 129.988 17.5032 130.031 17.5229C130.074 17.5426 130.111 17.5734 130.138 17.6122C130.187 17.6995 130.202 17.8027 130.177 17.9004L129.91 19.6776C129.902 19.7808 129.854 19.8768 129.778 19.9453C129.702 20.0139 129.602 20.05 129.501 20.0458L127.108 20.0458Z" fill="#0A3158"/>
<path d="M132.162 29.8611C131.78 29.8629 131.407 29.7548 131.083 29.5489C130.728 29.3114 130.452 28.9712 130.289 28.572C130.07 28.0264 129.968 27.4397 129.989 26.8509C129.99 26.508 130.014 26.1656 130.06 25.826C130.107 25.4738 130.147 25.1911 130.178 24.9775C130.279 24.2037 130.536 23.4594 130.934 22.7919C131.296 22.2151 131.815 21.7586 132.429 21.4789C133.161 21.1652 133.95 21.0152 134.744 21.0387C135.261 21.036 135.778 21.0843 136.286 21.1826C136.733 21.2681 137.171 21.3969 137.593 21.5671C137.934 21.7008 138.257 21.8784 138.553 22.0954L137.357 29.765H134.618L134.429 28.9322C134.25 29.0944 134.055 29.2366 133.846 29.3566C133.595 29.5053 133.328 29.6261 133.051 29.7168C132.764 29.8127 132.464 29.8614 132.162 29.8611ZM133.72 27.3792C133.938 27.3853 134.153 27.33 134.342 27.2192C134.484 27.1372 134.614 27.0346 134.728 26.9148L135.247 23.6325C135.169 23.5999 135.087 23.5757 135.003 23.5604C134.872 23.5326 134.737 23.5193 134.602 23.5204C134.353 23.5133 134.108 23.586 133.901 23.7286C133.699 23.8773 133.536 24.0754 133.429 24.3049C133.301 24.5731 133.214 24.8592 133.169 25.1536C133.127 25.3777 133.096 25.594 133.075 25.8021C133.054 26.0101 133.043 26.1678 133.043 26.2742C133.042 26.5315 133.087 26.7866 133.177 27.027C133.216 27.1387 133.291 27.2338 133.389 27.2975C133.488 27.3612 133.604 27.39 133.72 27.3792Z" fill="#0A3158"/>
<path d="M142.143 29.8609C141.733 29.8609 141.369 29.8504 141.049 29.829C140.728 29.8075 140.434 29.7755 140.167 29.7329C139.915 29.6938 139.665 29.6402 139.419 29.5728C139.188 29.5088 138.962 29.4395 138.742 29.3646L139.026 27.5551H142.836C142.952 27.5609 143.067 27.5302 143.166 27.4672C143.202 27.446 143.234 27.4172 143.258 27.3828C143.282 27.3482 143.299 27.3089 143.308 27.2672L143.339 27.075C143.347 27.0407 143.352 27.006 143.355 26.9709V26.9309C143.355 26.7705 143.224 26.6905 142.961 26.6907H141.891C141.458 26.6953 141.027 26.6278 140.616 26.4907C140.254 26.3757 139.932 26.1591 139.687 25.8661C139.446 25.5543 139.323 25.1652 139.341 24.7692C139.341 24.6519 139.343 24.5293 139.348 24.401C139.354 24.267 139.367 24.1332 139.388 24.0007L139.482 23.4405C139.56 22.997 139.732 22.5763 139.986 22.2075C140.282 21.811 140.688 21.513 141.151 21.3508C141.83 21.1182 142.544 21.0125 143.26 21.0386C143.644 21.0396 144.028 21.061 144.41 21.1027C144.808 21.1454 145.194 21.204 145.567 21.2788C145.897 21.3415 146.221 21.4325 146.535 21.551L146.252 23.3603H142.678C142.559 23.3525 142.44 23.3745 142.332 23.4243C142.291 23.4516 142.256 23.4871 142.229 23.5283C142.202 23.5694 142.183 23.6159 142.174 23.6645L142.159 23.7286C142.149 23.7681 142.141 23.8083 142.135 23.8486C142.13 23.883 142.127 23.9179 142.127 23.9527C142.126 24.0235 142.151 24.0924 142.198 24.1449C142.292 24.2122 142.407 24.2409 142.521 24.2249H143.796C144.409 24.1927 145.016 24.361 145.528 24.7053C145.731 24.8473 145.897 25.0389 146.01 25.2625C146.123 25.4862 146.179 25.735 146.173 25.9862C146.173 26.1144 146.171 26.2478 146.165 26.3864C146.16 26.5259 146.147 26.6649 146.126 26.8029L146.016 27.5552C145.979 27.933 145.849 28.295 145.637 28.6073C145.425 28.9197 145.138 29.1721 144.803 29.3406C143.967 29.7194 143.057 29.8975 142.143 29.8609Z" fill="#0A3158"/>
<path d="M156.643 19.5936L156.52 20.0626C156.272 20.9177 156.089 21.7907 155.972 22.6739C155.957 22.8094 155.901 22.8772 155.803 22.8772C155.782 22.8794 155.76 22.874 155.742 22.8619C155.723 22.8497 155.71 22.8318 155.703 22.8107C155.678 22.6806 155.665 22.5483 155.665 22.4158C155.608 21.4257 155.353 20.7247 154.9 20.3128C154.504 19.9249 153.978 19.7041 153.428 19.6951C152.747 19.7053 152.094 19.9727 151.596 20.4457C150.937 21.0882 150.437 21.8798 150.136 22.756C149.723 23.8227 149.516 24.9599 149.525 26.1059C149.525 27.1329 149.75 27.9408 150.201 28.5296C150.401 28.8085 150.663 29.0344 150.967 29.1882C151.271 29.3419 151.606 29.419 151.945 29.4129C152.578 29.3968 153.193 29.2034 153.724 28.8539C154.337 28.4757 154.852 27.9545 155.226 27.3334C155.319 27.1875 155.398 27.1144 155.465 27.1144C155.484 27.1117 155.503 27.1134 155.521 27.1195C155.539 27.1256 155.555 27.136 155.569 27.1497C155.582 27.1634 155.592 27.18 155.598 27.1983C155.604 27.2168 155.606 27.2363 155.603 27.2555C155.603 27.3856 155.423 27.6775 155.061 28.131C154.614 28.6524 154.069 29.0778 153.458 29.3819C152.758 29.7606 151.976 29.9567 151.183 29.9525C150.714 29.9753 150.246 29.8828 149.819 29.6828C149.392 29.4828 149.019 29.181 148.731 28.8034C148.139 28.0142 147.83 27.0434 147.855 26.0513C147.866 24.9155 148.137 23.7979 148.647 22.7872C149.127 21.7547 149.886 20.8818 150.834 20.2697C151.603 19.7315 152.505 19.4241 153.437 19.3824C153.953 19.3998 154.459 19.5305 154.921 19.7654C155.141 19.8865 155.381 19.9685 155.628 20.0078C155.762 19.9895 155.89 19.9433 156.005 19.8721C156.121 19.8007 156.22 19.706 156.297 19.5936C156.322 19.5575 156.354 19.527 156.391 19.5041C156.428 19.481 156.469 19.4663 156.512 19.4607C156.53 19.4581 156.548 19.4597 156.565 19.4656C156.582 19.4714 156.598 19.481 156.61 19.4939C156.623 19.5068 156.633 19.5225 156.638 19.5398C156.644 19.5571 156.646 19.5756 156.643 19.5936Z" fill="#0A3158"/>
<path d="M160.985 19.0462C160.888 19.4059 160.442 20.8835 159.648 23.4791L158.218 28.303C158.115 28.6617 158.035 29.0271 157.98 29.3966C157.98 29.4805 158.013 29.5226 158.08 29.5226C158.223 29.5226 158.508 29.3427 158.933 28.9832C159.284 28.7049 159.593 28.3756 159.849 28.0057C159.972 27.813 160.065 27.7167 160.126 27.7167C160.144 27.714 160.162 27.7157 160.179 27.7214C160.196 27.7272 160.212 27.737 160.224 27.7499C160.237 27.7628 160.246 27.7784 160.252 27.7959C160.258 27.8131 160.259 27.8314 160.257 27.8496C160.257 28.0267 159.971 28.4178 159.399 29.0222C158.827 29.6268 158.272 29.9291 157.734 29.9292C157.573 29.9285 157.419 29.8651 157.303 29.7519C157.236 29.684 157.184 29.6021 157.151 29.5117C157.118 29.4216 157.104 29.325 157.111 29.2288C157.115 28.8352 157.169 28.4439 157.272 28.0645C157.38 27.6553 157.877 26.0122 158.764 23.1352C159.348 21.2484 159.64 20.1721 159.64 19.9061C159.64 19.6197 159.34 19.4659 158.74 19.4449C158.515 19.4398 158.402 19.3876 158.402 19.2886C158.402 19.1791 158.515 19.1244 158.74 19.1244L160.985 19.0462Z" fill="#0A3158"/>
<path d="M167.42 23.1977C167.336 23.4633 167.166 23.95 166.904 24.6578C166.012 27.0319 165.567 28.4867 165.567 29.0225C165.562 29.081 165.579 29.1393 165.613 29.1866C165.63 29.2056 165.652 29.2204 165.676 29.2297C165.7 29.2392 165.726 29.2429 165.751 29.241C165.91 29.241 166.126 29.1029 166.398 28.8266C166.636 28.5859 166.851 28.3213 167.036 28.0372C167.154 27.8443 167.258 27.7479 167.344 27.7477C167.361 27.7453 167.378 27.7469 167.395 27.7523C167.41 27.7577 167.425 27.7669 167.436 27.7791C167.448 27.7913 167.458 27.806 167.463 27.8223C167.468 27.8386 167.47 27.8558 167.466 27.8728C167.466 28.0867 167.191 28.4789 166.64 29.0497C166.089 29.6202 165.603 29.9055 165.182 29.9056C165.105 29.9107 165.027 29.8958 164.956 29.8623C164.886 29.8289 164.825 29.7778 164.779 29.7139C164.677 29.5409 164.63 29.3404 164.644 29.1393C164.664 28.5052 164.772 27.877 164.967 27.2741C163.845 29.0232 162.894 29.8977 162.115 29.8978C162.016 29.8963 161.918 29.8729 161.828 29.829C161.739 29.7853 161.659 29.7221 161.596 29.6441C161.448 29.4821 161.366 29.2681 161.369 29.0468C161.37 28.8112 161.398 28.5766 161.454 28.3479C161.51 28.1108 161.72 27.4378 162.084 26.3289C162.448 25.22 162.669 24.5719 162.745 24.3846C162.828 24.203 162.875 24.0067 162.884 23.8069C162.887 23.7606 162.873 23.7149 162.845 23.6784C162.829 23.6628 162.809 23.6509 162.788 23.6435C162.767 23.6362 162.744 23.6333 162.722 23.6355C162.501 23.6355 162.099 23.9872 161.514 24.691C161.288 24.9672 161.142 25.1053 161.075 25.1053C161.061 25.1075 161.046 25.1061 161.032 25.1014C161.018 25.0966 161.005 25.0887 160.995 25.078C160.984 25.0673 160.976 25.0544 160.972 25.0402C160.967 25.026 160.966 25.0109 160.968 24.996C160.968 24.8136 161.236 24.4525 161.772 23.913C162.307 23.3736 162.778 23.104 163.183 23.104C163.278 23.1041 163.371 23.1253 163.456 23.1657C163.542 23.2062 163.618 23.265 163.679 23.338C163.816 23.483 163.892 23.6762 163.891 23.8771C163.811 24.4647 163.643 25.0365 163.391 25.5716C162.715 27.269 162.376 28.3855 162.376 28.9213C162.376 29.0185 162.404 29.1135 162.457 29.1944C162.476 29.2307 162.504 29.2614 162.539 29.2832C162.573 29.3053 162.613 29.3176 162.653 29.3192C162.819 29.2931 162.975 29.223 163.106 29.1164C163.492 28.7742 163.83 28.3815 164.114 27.9489C164.614 27.256 165.047 26.5146 165.405 25.7353L166.581 23.1977C166.675 23.1653 166.774 23.1494 166.874 23.1508C167.056 23.1536 167.238 23.1692 167.42 23.1977Z" fill="#0A3158"/>
<path d="M171.977 19.0932L170.659 23.7769C171.402 23.297 171.979 23.057 172.394 23.057C172.634 23.0491 172.871 23.1072 173.08 23.2255C173.29 23.3437 173.464 23.5176 173.584 23.7286C173.869 24.2058 174.012 24.756 173.999 25.3138C173.989 26.4907 173.549 27.6213 172.761 28.4845C171.937 29.4475 171.116 29.9291 170.302 29.9292C169.848 29.9474 169.405 29.7848 169.068 29.476C168.903 29.3083 168.774 29.1068 168.691 28.8846C168.609 28.6624 168.572 28.4247 168.587 28.1876C168.587 27.6619 168.796 26.6646 169.21 25.1957L170.618 20.2812C170.666 20.1404 170.694 19.9931 170.701 19.8437C170.701 19.5519 170.457 19.3929 169.972 19.3669C169.848 19.3617 169.787 19.3122 169.787 19.2183C169.787 19.135 169.838 19.0932 169.94 19.0932L171.17 19.1245C171.417 19.1245 171.685 19.114 171.977 19.0932ZM170.609 29.546C171.22 29.546 171.757 29.0983 172.224 28.2028C172.704 27.2441 172.945 26.1793 172.923 25.1033C172.946 24.6834 172.875 24.2637 172.711 23.8773C172.656 23.7539 172.566 23.6494 172.454 23.5772C172.341 23.505 172.209 23.4682 172.076 23.4713C171.712 23.4713 171.333 23.6847 170.941 24.1112C170.482 24.6704 170.16 25.3328 170.004 26.0435C169.808 26.6839 169.692 27.3461 169.657 28.0155C169.63 28.4132 169.713 28.8101 169.894 29.1632C169.969 29.2866 170.074 29.3871 170.2 29.4546C170.326 29.5219 170.467 29.5534 170.609 29.546Z" fill="#0A3158"/>
</g>
<defs>
<clipPath id="clip0_311_2004">
<rect width="174" height="50" fill="white"/>
</clipPath>
</defs>
</svg>
